<?xml version="1.0" standalone="no"?>
<!DOCTYPE svg PUBLIC "-//W3C//DTD SVG 20010904//EN"
 "http://www.w3.org/TR/2001/REC-SVG-20010904/DTD/svg10.dtd">
<svg version="1.0" xmlns="http://www.w3.org/2000/svg"
 width="1024.000000pt" height="1024.000000pt" viewBox="0 0 1024.000000 1024.000000"
 preserveAspectRatio="xMidYMid meet">
<metadata>
Created by potrace 1.11, written by Peter Selinger 2001-2013
</metadata>
<g transform="translate(0.000000,1024.000000) scale(0.100000,-0.100000)"
fill="#000000" stroke="none">
<path d="M4033 6830 c-87 -16 -153 -46 -354 -163 -107 -63 -291 -169 -409
-237 -209 -120 -274 -157 -600 -347 -85 -49 -293 -170 -462 -267 -170 -98
-306 -182 -302 -187 3 -5 -3 -6 -12 -2 -13 5 -15 3 -9 -7 5 -9 4 -11 -4 -6
-17 11 -114 -58 -174 -124 -44 -48 -91 -115 -92 -130 -1 -3 -6 -14 -12 -25
-25 -44 -45 -143 -46 -219 -1 -93 20 -196 35 -175 8 11 8 10 4 -4 -8 -26 24
-103 36 -85 6 9 7 6 3 -8 -4 -15 3 -32 22 -55 15 -19 31 -35 36 -37 4 -2 7 -8
7 -13 0 -22 142 -134 154 -122 3 3 6 1 6 -6 0 -8 6 -11 16 -7 8 3 13 2 10 -3
-8 -12 92 -64 106 -55 6 4 8 3 4 -4 -10 -16 234 -158 249 -144 5 4 6 2 2 -3
-7 -13 180 -118 194 -109 5 3 8 0 7 -6 -2 -7 26 -28 62 -47 36 -19 93 -53 127
-74 34 -22 65 -39 67 -39 3 0 25 -14 50 -31 25 -17 50 -27 56 -24 5 3 10 2 10
-4 0 -5 12 -16 28 -24 44 -23 75 -41 117 -69 58 -37 162 -88 179 -88 8 0 18
-4 21 -10 4 -6 -1 -7 -12 -4 -10 3 7 -9 37 -26 30 -18 61 -33 68 -34 8 -1 17
-7 20 -13 4 -6 31 -23 60 -39 89 -48 111 -61 126 -73 7 -6 22 -9 32 -5 13 4
15 3 6 -3 -9 -7 4 -19 50 -43 35 -19 92 -51 128 -73 62 -38 80 -49 166 -98 20
-11 43 -18 51 -15 8 3 12 2 9 -3 -15 -24 173 -65 259 -56 97 10 261 68 248 88
-3 6 -1 7 5 3 14 -9 84 42 76 55 -3 5 0 8 8 7 7 -2 12 3 10 10 -1 8 1 11 6 8
5 -3 22 8 37 24 16 17 25 30 20 30 -5 0 -2 6 7 13 25 19 70 107 64 123 -3 8
-1 12 4 9 5 -3 17 20 26 51 18 64 17 269 -2 282 -14 9 -27 45 -14 37 30 -19
-61 150 -111 205 -22 25 -38 40 -35 34 3 -7 -2 -18 -12 -25 -14 -11 -15 -11
-5 1 19 21 1 43 -76 94 -39 25 -73 46 -76 46 -3 0 -38 20 -78 44 -126 76 -167
97 -179 90 -7 -4 -8 -3 -4 4 8 13 -133 94 -152 87 -7 -3 -10 -1 -7 5 7 12
-113 82 -127 74 -6 -4 -8 -3 -5 3 3 5 -11 19 -31 30 -84 47 -110 62 -162 93
-30 18 -71 42 -90 53 -19 10 -54 30 -77 44 -23 13 -47 22 -53 18 -6 -4 -9 -2
-8 4 2 6 -17 23 -41 37 -24 15 -40 21 -36 13 8 -12 6 -12 -8 0 -9 7 -17 19
-17 26 0 6 53 42 118 80 335 193 457 264 667 385 127 73 244 141 260 150 160
91 211 132 271 216 59 82 90 162 105 265 10 72 10 96 -4 164 -44 217 -197 388
-403 450 -62 19 -187 26 -251 15z m-648 -1858 c-3 -3 -11 0 -18 7 -9 10 -8 11
6 5 10 -3 15 -9 12 -12z m640 -320 c-3 -3 -11 0 -18 7 -9 10 -8 11 6 5 10 -3
15 -9 12 -12z m255 -158 c0 -2 -9 0 -20 6 -11 6 -20 13 -20 16 0 2 9 0 20 -6
11 -6 20 -13 20 -16z m145 -82 c-3 -3 -11 0 -18 7 -9 10 -8 11 6 5 10 -3 15
-9 12 -12z m-2050 -72 c3 -6 -1 -7 -9 -4 -18 7 -21 14 -7 14 6 0 13 -4 16 -10z
m635 -370 c-12 -8 -12 -10 -1 -10 8 0 12 -3 8 -6 -9 -9 -28 6 -22 17 4 5 12 9
18 9 7 0 6 -4 -3 -10z m331 -197 c13 -17 13 -17 -6 -3 -11 8 -22 16 -24 17 -2
2 0 3 6 3 6 0 17 -8 24 -17z m414 -193 c3 -6 -1 -7 -9 -4 -18 7 -21 14 -7 14
6 0 13 -4 16 -10z"/>
<path d="M6055 6833 c-286 -42 -497 -279 -498 -558 -1 -136 35 -242 117 -352
39 -52 129 -132 161 -144 6 -2 134 -76 285 -164 151 -88 277 -160 280 -160 3
0 31 -17 63 -38 31 -20 59 -37 61 -37 2 0 65 -36 140 -80 76 -44 139 -80 141
-80 2 0 56 -31 119 -70 64 -38 118 -70 121 -70 3 0 22 -11 43 -23 20 -13 57
-35 82 -49 62 -35 142 -82 290 -168 69 -40 159 -92 200 -115 41 -23 91 -52
110 -64 131 -80 251 -120 361 -121 65 0 190 30 242 58 73 39 137 87 132 100
-3 7 0 10 6 6 24 -14 119 123 153 222 89 258 -18 538 -261 681 -23 13 -48 21
-54 17 -7 -4 -9 -3 -6 4 6 9 -40 39 -188 122 -106 59 -603 348 -653 379 -19
12 -38 18 -44 15 -6 -4 -8 -3 -5 2 3 5 -20 23 -51 39 -31 16 -68 36 -82 45
-14 10 -115 69 -225 132 -110 64 -240 139 -290 168 -49 29 -112 65 -140 80
-27 15 -106 60 -175 100 -68 40 -154 83 -190 95 -65 23 -187 37 -245 28z"/>
<path d="M2540 2380 c-123 -16 -227 -64 -288 -134 -61 -69 -67 -90 -67 -216 0
-109 2 -118 30 -169 34 -63 95 -111 205 -166 139 -69 166 -103 114 -144 -69
-54 -235 -48 -378 14 -53 23 -82 31 -87 24 -18 -29 -50 -182 -47 -225 l3 -48
55 -19 c189 -65 453 -63 604 6 69 32 116 75 152 139 27 50 29 60 29 163 -1 94
-4 117 -24 158 -28 58 -101 119 -211 177 -41 21 -90 52 -109 67 -45 38 -37 67
26 95 65 29 198 22 306 -16 43 -15 80 -26 82 -24 2 1 15 46 29 98 31 115 27
166 -13 182 -85 32 -301 53 -411 38z"/>
<path d="M3685 2380 c-345 -39 -576 -226 -632 -509 -14 -72 -15 -100 -5 -198
14 -147 43 -213 123 -287 113 -105 243 -142 468 -133 113 4 242 25 258 41 12
12 63 219 63 255 0 37 -3 42 -17 38 -134 -44 -164 -49 -268 -50 -124 -2 -171
9 -238 54 -61 40 -102 120 -94 180 14 106 110 230 215 279 145 69 352 67 513
-4 13 -6 21 12 45 105 21 77 28 125 24 153 l-5 41 -85 17 c-108 22 -263 29
-365 18z"/>
<path d="M7405 2381 c-176 -23 -293 -95 -335 -207 -29 -78 -28 -226 1 -289 31
-67 104 -127 225 -188 124 -63 175 -107 154 -132 -60 -72 -275 -64 -433 17
-22 11 -41 17 -44 15 -9 -10 -41 -172 -45 -227 l-3 -54 73 -23 c100 -32 180
-43 303 -43 221 0 375 70 431 197 25 57 35 210 18 272 -18 68 -110 153 -237
221 -104 55 -171 109 -158 129 3 6 25 21 48 32 58 30 202 23 302 -15 39 -15
74 -28 79 -29 9 -2 40 125 51 216 7 54 6 57 -18 66 -88 34 -305 55 -412 42z"/>
<path d="M1010 2365 c0 -2 -70 -231 -155 -507 -85 -276 -155 -517 -155 -534 0
-67 -11 -64 244 -64 406 1 560 24 719 107 134 71 249 212 294 358 24 80 24
284 0 367 -42 140 -176 236 -375 267 -68 11 -572 16 -572 6z m495 -280 c75
-20 126 -53 156 -101 21 -35 22 -41 12 -101 -28 -164 -144 -282 -320 -328 -74
-19 -287 -21 -280 -2 2 6 32 104 66 217 34 113 71 233 82 268 l21 62 102 0
c59 0 127 -6 161 -15z"/>
<path d="M4851 2333 c-128 -481 -261 -1005 -261 -1030 0 -26 5 -34 23 -38 12
-3 179 -4 371 -3 l350 3 22 80 c12 44 23 106 23 138 l1 57 -216 0 -216 0 6 32
c3 18 11 49 16 70 l11 38 201 2 201 3 23 95 c13 52 24 114 24 138 l0 42 -189
0 -189 0 17 68 17 67 216 3 215 2 21 86 c12 46 22 107 22 134 l0 50 -350 0
-349 0 -10 -37z"/>
<path d="M5657 1853 c-70 -285 -127 -535 -127 -555 l0 -38 130 0 129 0 10 38
c28 105 135 548 150 619 l17 82 214 -356 c118 -196 220 -362 227 -369 8 -8 53
-12 132 -13 107 -2 120 0 125 16 4 16 48 204 152 648 19 83 46 196 60 253 13
57 24 123 24 148 l0 44 -127 0 -128 0 -77 -333 c-43 -182 -79 -341 -81 -352
-3 -24 23 -64 -231 358 l-198 327 -137 0 -137 0 -127 -517z"/>
<path d="M8120 2365 c0 -2 -50 -230 -110 -506 -61 -276 -111 -522 -113 -548
l-2 -46 137 -3 c136 -3 138 -2 143 20 5 23 44 204 110 513 18 88 49 232 68
320 19 88 38 181 42 208 l6 47 -140 0 c-78 0 -141 -2 -141 -5z"/>
<path d="M8542 2268 c-12 -57 -22 -118 -22 -135 l0 -33 165 0 c129 0 165 -3
165 -13 0 -7 -34 -175 -75 -373 -42 -197 -77 -379 -78 -404 l-2 -45 133 -3
c151 -3 142 -8 161 98 6 30 42 208 80 394 39 187 71 341 71 343 0 2 78 3 173
3 l174 0 21 103 c12 57 22 118 22 135 l0 32 -483 0 -484 0 -21 -102z"/>
</g>
</svg>
